<svg width="20" height="20" viewBox="0 0 20 20" fill="none" xmlns="http://www.w3.org/2000/svg">
<g clip-path="url(#clip0_1_117)">
<path d="M17.4701 10C17.4701 5.87443 14.1257 2.53 10.0001 2.53C5.87455 2.53 2.53012 5.87443 2.53012 10C2.53012 14.1256 5.87455 17.47 10.0001 17.47C14.1257 17.47 17.4701 14.1256 17.4701 10ZM19.1301 10C19.1301 15.0423 15.0424 19.13 10.0001 19.13C4.95776 19.13 0.870117 15.0423 0.870117 10C0.870117 4.95764 4.95776 0.869995 10.0001 0.869995C15.0424 0.869995 19.1301 4.95764 19.1301 10Z" fill="#F3F4F6"/>
<path d="M12.4901 9.99998C12.4901 8.62475 11.3753 7.50998 10.0001 7.50998C8.62487 7.50998 7.5101 8.62475 7.5101 9.99998C7.5101 11.3752 8.62487 12.49 10.0001 12.49C11.3753 12.49 12.4901 11.3752 12.4901 9.99998ZM14.1501 9.99998C14.1501 12.2919 12.2921 14.15 10.0001 14.15C7.70812 14.15 5.8501 12.2919 5.8501 9.99998C5.8501 7.708 7.70812 5.84998 10.0001 5.84998C12.2921 5.84998 14.1501 7.708 14.1501 9.99998Z" fill="#F3F4F6"/>
<path d="M17.6297 5.83997L17.7149 5.84402C18.1333 5.8866 18.4597 6.24027 18.4597 6.66997C18.4597 7.09966 18.1333 7.45334 17.7149 7.49592L17.6297 7.49997L10.0187 7.49997C9.56031 7.49997 9.18872 7.12836 9.18872 6.66997C9.18872 6.21157 9.56031 5.83997 10.0187 5.83997L17.6297 5.83997Z" fill="#F3F4F6"/>
<path d="M2.87601 4.34596C3.24814 4.13114 3.71767 4.23731 3.96375 4.57858L4.00996 4.64991L7.81953 11.2397L7.85844 11.3151C8.03113 11.6986 7.88828 12.1584 7.51639 12.3736C7.14438 12.5887 6.67491 12.4828 6.42863 12.1418L6.38243 12.0704L2.57205 5.47991L2.53395 5.40453C2.36131 5.02092 2.50396 4.56103 2.87601 4.34596Z" fill="#F3F4F6"/>
<path d="M12.162 11.2699C12.391 10.873 12.8989 10.7369 13.2959 10.9659C13.6927 11.195 13.8289 11.7029 13.5999 12.0999L9.79838 18.6896L9.75215 18.761C9.5063 19.1023 9.03669 19.2092 8.66443 18.9944C8.26742 18.7654 8.13149 18.2575 8.36048 17.8604L12.162 11.2699Z" fill="#F3F4F6"/>
</g>
<defs>
<clipPath id="clip0_1_117">
<rect width="20" height="20" fill="white"/>
</clipPath>
</defs>
</svg>
